<svg xmlns="http://www.w3.org/2000/svg" width="1544" height="1113" viewBox="0 0 1544 1113"><defs><style type="text/css"/></defs><g transform="translate(489.49598227164915 803.3059415107773) scale(1)"><g class="relationship"><g transform="translate(-50.489893375309094 3.2362510171129486) rotate(-117.39613853841165)" stroke-width="5" stroke="#000000"><path d="M 58.695178092152055 -5.989663490593891 L 95.96898050729243 -9.793341079425122 A 40 40 0 0 1 100.02976931447472 -10 L 213.28634217554063 -10 L 326.54291503660653 -10 A 40 40 0 0 1 330.6037038437889 -9.79334107942512 L 343.14380527142674 -8.51366206436971 L 343.14380527142674 -8.51366206436971"/><polygon points="-24.8621506177483,0 -27.62461179749811,9.20820393249937 0,0 -27.62461179749811,-9.20820393249937" fill="#000000" transform="translate(426.57268435108125 0) rotate(5.826689442008371) translate(-59 0)" stroke="none"/></g><g transform="translate(-157.5099240185736 -181.5278602159307) rotate(62.60386146158835) translate(0 -13)"><g transform="translate(0 0)"><g transform="translate(-48.86328125 0)" fill="#ffffff" stroke="#000000" stroke-width="0"><rect x="0" y="0" width="97.7265625" height="26" rx="5" ry="5" stroke="none"/><text xml:space="preserve" x="5" y="17.5" stroke="none" text-anchor="left" font-family="sans-serif" font-size="16" font-weight="normal" fill="#000000">SUPPORTS</text></g></g></g></g><g class="relationship"><g transform="translate(-246.7730266941337 -375.4947704335093) rotate(62.60386146158835)" stroke-width="5" stroke="#000000"><path d="M 58.695178092152055 -5.989663490593891 L 95.96898050729243 -9.793341079425122 A 40 40 0 0 1 100.02976931447472 -10 L 213.28634217554063 -10 L 326.54291503660653 -10 A 40 40 0 0 1 330.6037038437889 -9.79334107942512 L 343.14380527142674 -8.51366206436971 L 343.14380527142674 -8.51366206436971"/><polygon points="-24.8621506177483,0 -27.62461179749811,9.20820393249937 0,0 -27.62461179749811,-9.20820393249937" fill="#000000" transform="translate(426.57268435108125 0) rotate(5.826689442008371) translate(-59 0)" stroke="none"/></g><g transform="translate(-139.7529960508692 -190.73065920046565) rotate(62.60386146158835) translate(0 -13)"><g transform="translate(0 0)"><g transform="translate(-81.76953125 0)" fill="#ffffff" stroke="#000000" stroke-width="0"><rect x="0" y="0" width="163.5390625" height="26" rx="5" ry="5" stroke="none"/><text xml:space="preserve" x="5" y="17.5" stroke="none" text-anchor="left" font-family="sans-serif" font-size="16" font-weight="normal" fill="#000000">IS_SUPPORTED_BY</text></g></g></g></g><g class="relationship"><g transform="translate(-246.7730266941337 -375.4947704335093) rotate(-175.80861840648907)" stroke-width="5" stroke="#000000"><path d="M 58.695178092152055 -5.989663490593892 L 95.96898050729241 -9.793341079425122 A 40 40 0 0 1 100.0297693144747 -10 L 118 -10 L 226 -10 A 10 10 0 0 1 236 -1.7763568394002505e-15 L 236 0 L 236 1.7763568394002505e-15 A 10 10 0 0 1 226 10 L 118 10 L 100.0297693144747 10 A 40 40 0 0 0 95.96898050729241 9.793341079425122 L 83.42887907965451 8.513662064369711 L 83.42887907965451 8.513662064369711"/><polygon points="-24.8621506177483,0 -27.62461179749811,9.20820393249937 0,0 -27.62461179749811,-9.20820393249937" fill="#000000" transform="rotate(185.8266894420084) translate(-59 0)" stroke="none"/></g><g transform="translate(-472.16858571650164 -392.01269926839217) rotate(-85.80861840648907) translate(0 -13)"><g transform="translate(0 0)"><g transform="translate(-59.68359375 0)" fill="#ffffff" stroke="#000000" stroke-width="0"><rect x="0" y="0" width="119.3671875" height="26" rx="5" ry="5" stroke="none"/><text xml:space="preserve" x="5" y="17.5" stroke="none" text-anchor="left" font-family="sans-serif" font-size="16" font-weight="normal" fill="#000000">SUPERSEDES</text></g></g></g></g><g class="relationship"><g transform="translate(-246.7730266941337 -375.4947704335093) rotate(-100.7053398223581)" stroke-width="5" stroke="#000000"><path d="M 58.695178092152055 -5.989663490593892 L 95.96898050729241 -9.793341079425122 A 40 40 0 0 1 100.0297693144747 -10 L 118 -10 L 226 -10 A 10 10 0 0 1 236 -1.7763568394002505e-15 L 236 0 L 236 1.7763568394002505e-15 A 10 10 0 0 1 226 10 L 118 10 L 100.0297693144747 10 A 40 40 0 0 0 95.96898050729241 9.793341079425122 L 83.42887907965451 8.513662064369711 L 83.42887907965451 8.513662064369711"/><polygon points="-24.8621506177483,0 -27.62461179749811,9.20820393249937 0,0 -27.62461179749811,-9.20820393249937" fill="#000000" transform="rotate(185.8266894420084) translate(-59 0)" stroke="none"/></g><g transform="translate(-288.75437799961225 -597.561350860565) rotate(-10.7053398223581) translate(0 -13)"><g transform="translate(0 0)"><g transform="translate(-87.25390625 0)" fill="#ffffff" stroke="#000000" stroke-width="0"><rect x="0" y="0" width="174.5078125" height="26" rx="5" ry="5" stroke="none"/><text xml:space="preserve" x="5" y="17.5" stroke="none" text-anchor="left" font-family="sans-serif" font-size="16" font-weight="normal" fill="#000000">IS_SUPERSEDED_BY</text></g></g></g></g><g class="relationship"><g transform="translate(-351.96534165515396 -71.51336991776162) rotate(-70.9118969906201)" stroke-width="5" stroke="#000000"><path d="M 58.695178092152055 -5.989663490593891 L 95.96898050729243 -9.793341079425122 A 40 40 0 0 1 100.02976931447472 -10 L 160.83385447906628 -10 L 221.63793964365786 -10 A 40 40 0 0 1 225.69872845084015 -9.79334107942512 L 238.23882987847804 -8.51366206436971 L 238.23882987847804 -8.51366206436971"/><polygon points="-24.8621506177483,0 -27.62461179749811,9.20820393249937 0,0 -27.62461179749811,-9.20820393249937" fill="#000000" transform="translate(321.66770895813255 0) rotate(5.826689442008371) translate(-59 0)" stroke="none"/></g><g transform="translate(-308.8193525331754 -226.77428698731774) rotate(-70.9118969906201) translate(0 -13)"><g transform="translate(0 0)"><g transform="translate(-50.0390625 0)" fill="#ffffff" stroke="#000000" stroke-width="0"><rect x="0" y="0" width="100.078125" height="26" rx="5" ry="5" stroke="none"/><text xml:space="preserve" x="5" y="17.5" stroke="none" text-anchor="left" font-family="sans-serif" font-size="16" font-weight="normal" fill="#000000">MOTIVATES</text></g></g></g></g><g class="relationship"><g transform="translate(-246.7730266941337 -375.4947704335093) rotate(109.0881030093799)" stroke-width="5" stroke="#000000"><path d="M 58.695178092152055 -5.989663490593891 L 95.96898050729243 -9.793341079425122 A 40 40 0 0 1 100.02976931447472 -10 L 160.83385447906628 -10 L 221.63793964365786 -10 A 40 40 0 0 1 225.69872845084015 -9.79334107942512 L 238.23882987847804 -8.51366206436971 L 238.23882987847804 -8.51366206436971"/><polygon points="-24.8621506177483,0 -27.62461179749811,9.20820393249937 0,0 -27.62461179749811,-9.20820393249937" fill="#000000" transform="translate(321.66770895813255 0) rotate(5.826689442008371) translate(-59 0)" stroke="none"/></g><g transform="translate(-289.9190158161123 -220.2338533639532) rotate(289.08810300937995) translate(0 -13)"><g transform="translate(0 0)"><g transform="translate(-77.609375 0)" fill="#ffffff" stroke="#000000" stroke-width="0"><rect x="0" y="0" width="155.21875" height="26" rx="5" ry="5" stroke="none"/><text xml:space="preserve" x="5" y="17.5" stroke="none" text-anchor="left" font-family="sans-serif" font-size="16" font-weight="normal" fill="#000000">IS_MOTIVATED_BY</text></g></g></g></g><g class="relationship"><g transform="translate(-351.96534165515396 -71.51336991776162) rotate(45)" stroke-width="5" stroke="#000000"><path d="M 59 0 L 194.51446121781217 0"/><polygon points="-24.8621506177483,0 -27.62461179749811,9.20820393249937 0,0 -27.62461179749811,-9.20820393249937" fill="#000000" transform="translate(219.37661183556048 0) rotate(0)" stroke="none"/></g><g transform="translate(-262.3344443271695 18.117527410222863) rotate(45) translate(0 -13)"><g transform="translate(0 0)"><g transform="translate(-138.515625 0)" fill="#ffffff" stroke="#000000" stroke-width="0"><rect x="0" y="0" width="277.03125" height="26" rx="5" ry="5" stroke="none"/><text xml:space="preserve" x="5" y="17.5" stroke="none" text-anchor="left" font-family="sans-serif" font-size="16" font-weight="normal" fill="#000000">HAS_APPLICATION_IMPLICATIONS</text></g></g></g></g><g class="relationship"><g transform="translate(220.3460502584051 -291.3654979504907) rotate(-169.79034274999805)" stroke-width="5" stroke="#000000"><path d="M 58.695178092152055 -5.989663490593891 L 95.96898050729243 -9.793341079425122 A 40 40 0 0 1 100.02976931447472 -10 L 237.31728052415076 -10 L 374.6047917338268 -10 A 40 40 0 0 1 378.66558054100915 -9.79334107942512 L 391.205681968647 -8.51366206436971 L 391.205681968647 -8.51366206436971"/><polygon points="-24.8621506177483,0 -27.62461179749811,9.20820393249937 0,0 -27.62461179749811,-9.20820393249937" fill="#000000" transform="translate(474.6345610483015 0) rotate(5.826689442008371) translate(-59 0)" stroke="none"/></g><g transform="translate(-14.985994465559514 -323.58847672987093) rotate(10.209657250001948) translate(0 -13)"><g transform="translate(0 0)"><g transform="translate(-48.86328125 0)" fill="#ffffff" stroke="#000000" stroke-width="0"><rect x="0" y="0" width="97.7265625" height="26" rx="5" ry="5" stroke="none"/><text xml:space="preserve" x="5" y="17.5" stroke="none" text-anchor="left" font-family="sans-serif" font-size="16" font-weight="normal" fill="#000000">SUPPORTS</text></g></g></g></g><g class="relationship"><g transform="translate(-246.7730266941337 -375.4947704335093) rotate(10.20965725000195)" stroke-width="5" stroke="#000000"><path d="M 58.695178092152055 -5.989663490593891 L 95.96898050729243 -9.793341079425122 A 40 40 0 0 1 100.02976931447472 -10 L 237.31728052415076 -10 L 374.6047917338268 -10 A 40 40 0 0 1 378.66558054100915 -9.79334107942512 L 391.205681968647 -8.51366206436971 L 391.205681968647 -8.51366206436971"/><polygon points="-24.8621506177483,0 -27.62461179749811,9.20820393249937 0,0 -27.62461179749811,-9.20820393249937" fill="#000000" transform="translate(474.6345610483015 0) rotate(5.826689442008371) translate(-59 0)" stroke="none"/></g><g transform="translate(-11.440981970169076 -343.2717916541291) rotate(10.20965725000195) translate(0 -13)"><g transform="translate(0 0)"><g transform="translate(-81.76953125 0)" fill="#ffffff" stroke="#000000" stroke-width="0"><rect x="0" y="0" width="163.5390625" height="26" rx="5" ry="5" stroke="none"/><text xml:space="preserve" x="5" y="17.5" stroke="none" text-anchor="left" font-family="sans-serif" font-size="16" font-weight="normal" fill="#000000">IS_SUPPORTED_BY</text></g></g></g></g><g class="relationship"><g transform="translate(220.3460502584051 -291.3654979504907) rotate(52.30465519138685)" stroke-width="5" stroke="#000000"><path d="M 58.695178092152055 -5.989663490593892 L 95.96898050729241 -9.793341079425122 A 40 40 0 0 1 100.0297693144747 -10 L 118 -10 L 226 -10 A 10 10 0 0 1 236 -1.7763568394002505e-15 L 236 0 L 236 1.7763568394002505e-15 A 10 10 0 0 1 226 10 L 118 10 L 100.0297693144747 10 A 40 40 0 0 0 95.96898050729241 9.793341079425122 L 83.42887907965451 8.513662064369711 L 83.42887907965451 8.513662064369711"/><polygon points="-24.8621506177483,0 -27.62461179749811,9.20820393249937 0,0 -27.62461179749811,-9.20820393249937" fill="#000000" transform="rotate(185.8266894420084) translate(-59 0)" stroke="none"/></g><g transform="translate(358.5366323251924 -112.53775114356327) rotate(322.30465519138687) translate(0 -13)"><g transform="translate(0 0)"><g transform="translate(-59.68359375 0)" fill="#ffffff" stroke="#000000" stroke-width="0"><rect x="0" y="0" width="119.3671875" height="26" rx="5" ry="5" stroke="none"/><text xml:space="preserve" x="5" y="17.5" stroke="none" text-anchor="left" font-family="sans-serif" font-size="16" font-weight="normal" fill="#000000">SUPERSEDES</text></g></g></g></g><g class="relationship"><g transform="translate(220.3460502584051 -291.3654979504907) rotate(74.60931038277371)" stroke-width="5" stroke="#000000"><path d="M 58.695178092152055 -5.989663490593892 L 95.96898050729241 -9.793341079425122 A 40 40 0 0 1 100.0297693144747 -10 L 118 -10 L 226 -10 A 10 10 0 0 1 236 -1.7763568394002505e-15 L 236 0 L 236 1.7763568394002505e-15 A 10 10 0 0 1 226 10 L 118 10 L 100.0297693144747 10 A 40 40 0 0 0 95.96898050729241 9.793341079425122 L 83.42887907965451 8.513662064369711 L 83.42887907965451 8.513662064369711"/><polygon points="-24.8621506177483,0 -27.62461179749811,9.20820393249937 0,0 -27.62461179749811,-9.20820393249937" fill="#000000" transform="rotate(185.8266894420084) translate(-59 0)" stroke="none"/></g><g transform="translate(280.3263263043164 -73.47018711187656) rotate(344.6093103827737) translate(0 -13)"><g transform="translate(0 0)"><g transform="translate(-87.25390625 0)" fill="#ffffff" stroke="#000000" stroke-width="0"><rect x="0" y="0" width="174.5078125" height="26" rx="5" ry="5" stroke="none"/><text xml:space="preserve" x="5" y="17.5" stroke="none" text-anchor="left" font-family="sans-serif" font-size="16" font-weight="normal" fill="#000000">IS_SUPERSEDED_BY</text></g></g></g></g><g class="relationship"><g transform="translate(220.3460502584051 -291.3654979504907) rotate(132.59322845687083)" stroke-width="5" stroke="#000000"><path d="M 58.695178092152055 -5.989663490593891 L 95.96898050729243 -9.793341079425122 A 40 40 0 0 1 100.02976931447472 -10 L 200.088917021118 -10 L 300.14806472776127 -10 A 40 40 0 0 1 304.2088535349436 -9.79334107942512 L 316.7489549625815 -8.51366206436971 L 316.7489549625815 -8.51366206436971"/><polygon points="-24.8621506177483,0 -27.62461179749811,9.20820393249937 0,0 -27.62461179749811,-9.20820393249937" fill="#000000" transform="translate(400.177834042236 0) rotate(5.826689442008371) translate(-59 0)" stroke="none"/></g><g transform="translate(92.28984923209384 -137.29673377879757) rotate(312.5932284568708) translate(0 -13)"><g transform="translate(0 0)"><g transform="translate(-48.86328125 0)" fill="#ffffff" stroke="#000000" stroke-width="0"><rect x="0" y="0" width="97.7265625" height="26" rx="5" ry="5" stroke="none"/><text xml:space="preserve" x="5" y="17.5" stroke="none" text-anchor="left" font-family="sans-serif" font-size="16" font-weight="normal" fill="#000000">SUPPORTS</text></g></g></g></g><g class="relationship"><g transform="translate(-50.489893375309094 3.2362510171129486) rotate(-47.4067715431292)" stroke-width="5" stroke="#000000"><path d="M 58.695178092152055 -5.989663490593891 L 95.96898050729243 -9.793341079425122 A 40 40 0 0 1 100.02976931447472 -10 L 200.088917021118 -10 L 300.14806472776127 -10 A 40 40 0 0 1 304.2088535349436 -9.79334107942512 L 316.7489549625815 -8.51366206436971 L 316.7489549625815 -8.51366206436971"/><polygon points="-24.8621506177483,0 -27.62461179749811,9.20820393249937 0,0 -27.62461179749811,-9.20820393249937" fill="#000000" transform="translate(400.177834042236 0) rotate(5.826689442008371) translate(-59 0)" stroke="none"/></g><g transform="translate(77.56630765100218 -150.8325131545802) rotate(-47.4067715431292) translate(0 -13)"><g transform="translate(0 0)"><g transform="translate(-81.76953125 0)" fill="#ffffff" stroke="#000000" stroke-width="0"><rect x="0" y="0" width="163.5390625" height="26" rx="5" ry="5" stroke="none"/><text xml:space="preserve" x="5" y="17.5" stroke="none" text-anchor="left" font-family="sans-serif" font-size="16" font-weight="normal" fill="#000000">IS_SUPPORTED_BY</text></g></g></g></g><g class="relationship"><g transform="translate(220.3460502584051 -291.3654979504907) rotate(-20.255318969091828)" stroke-width="5" stroke="#000000"><path d="M 58.695178092152055 -5.989663490593891 L 95.96898050729243 -9.793341079425122 A 40 40 0 0 1 100.02976931447472 -10 L 237.31728052415076 -10 L 374.6047917338268 -10 A 40 40 0 0 1 378.66558054100915 -9.79334107942512 L 391.205681968647 -8.51366206436971 L 391.205681968647 -8.51366206436971"/><polygon points="-24.8621506177483,0 -27.62461179749811,9.20820393249937 0,0 -27.62461179749811,-9.20820393249937" fill="#000000" transform="translate(474.6345610483015 0) rotate(5.826689442008371) translate(-59 0)" stroke="none"/></g><g transform="translate(439.52539893487244 -382.907317624004) rotate(-20.255318969091828) translate(0 -13)"><g transform="translate(0 0)"><g transform="translate(-46.78515625 0)" fill="#ffffff" stroke="#000000" stroke-width="0"><rect x="0" y="0" width="93.5703125" height="26" rx="5" ry="5" stroke="none"/><text xml:space="preserve" x="5" y="17.5" stroke="none" text-anchor="left" font-family="sans-serif" font-size="16" font-weight="normal" fill="#000000">REQUIRES</text></g></g></g></g><g class="relationship"><g transform="translate(665.6288306352064 -455.68595328523946) rotate(159.74468103090817)" stroke-width="5" stroke="#000000"><path d="M 58.695178092152055 -5.989663490593891 L 95.96898050729243 -9.793341079425122 A 40 40 0 0 1 100.02976931447472 -10 L 237.31728052415076 -10 L 374.6047917338268 -10 A 40 40 0 0 1 378.66558054100915 -9.79334107942512 L 391.205681968647 -8.51366206436971 L 391.205681968647 -8.51366206436971"/><polygon points="-24.8621506177483,0 -27.62461179749811,9.20820393249937 0,0 -27.62461179749811,-9.20820393249937" fill="#000000" transform="translate(474.6345610483015 0) rotate(5.826689442008371) translate(-59 0)" stroke="none"/></g><g transform="translate(446.44948195873917 -364.1441336117261) rotate(339.74468103090817) translate(0 -13)"><g transform="translate(0 0)"><g transform="translate(-74.35546875 0)" fill="#ffffff" stroke="#000000" stroke-width="0"><rect x="0" y="0" width="148.7109375" height="26" rx="5" ry="5" stroke="none"/><text xml:space="preserve" x="5" y="17.5" stroke="none" text-anchor="left" font-family="sans-serif" font-size="16" font-weight="normal" fill="#000000">IS_REQUIRED_BY</text></g></g></g></g><g class="relationship"><g transform="translate(137.9174638408013 -559.8245876809591) rotate(72.93124238062003)" stroke-width="5" stroke="#000000"><path d="M 58.695178092152055 -5.989663490593891 L 95.96898050729243 -9.793341079425122 A 40 40 0 0 1 100.02976931447472 -10 L 140.41434641598775 -10 L 180.7989235175008 -10 A 40 40 0 0 1 184.8597123246831 -9.79334107942512 L 197.399813752321 -8.51366206436971 L 197.399813752321 -8.51366206436971"/><polygon points="-24.8621506177483,0 -27.62461179749811,9.20820393249937 0,0 -27.62461179749811,-9.20820393249937" fill="#000000" transform="translate(280.8286928319755 0) rotate(5.826689442008371) translate(-59 0)" stroke="none"/></g><g transform="translate(188.69128912672937 -428.5302338600005) rotate(72.93124238062003) translate(0 -13)"><g transform="translate(0 0)"><g transform="translate(-45.7421875 0)" fill="#ffffff" stroke="#000000" stroke-width="0"><rect x="0" y="0" width="91.484375" height="26" rx="5" ry="5" stroke="none"/><text xml:space="preserve" x="5" y="17.5" stroke="none" text-anchor="left" font-family="sans-serif" font-size="16" font-weight="normal" fill="#000000">CONTAINS</text></g></g></g></g><g class="relationship"><g transform="translate(220.3460502584051 -291.3654979504907) rotate(-107.06875761937998)" stroke-width="5" stroke="#000000"><path d="M 58.695178092152055 -5.989663490593891 L 95.96898050729243 -9.793341079425122 A 40 40 0 0 1 100.02976931447472 -10 L 140.41434641598775 -10 L 180.7989235175008 -10 A 40 40 0 0 1 184.8597123246831 -9.79334107942512 L 197.399813752321 -8.51366206436971 L 197.399813752321 -8.51366206436971"/><polygon points="-24.8621506177483,0 -27.62461179749811,9.20820393249937 0,0 -27.62461179749811,-9.20820393249937" fill="#000000" transform="translate(280.8286928319755 0) rotate(5.826689442008371) translate(-59 0)" stroke="none"/></g><g transform="translate(169.57222497247704 -422.65985177144927) rotate(72.93124238062) translate(0 -13)"><g transform="translate(0 0)"><g transform="translate(-59.09375 0)" fill="#ffffff" stroke="#000000" stroke-width="0"><rect x="0" y="0" width="118.1875" height="26" rx="5" ry="5" stroke="none"/><text xml:space="preserve" x="5" y="17.5" stroke="none" text-anchor="left" font-family="sans-serif" font-size="16" font-weight="normal" fill="#000000">BELONGS_TO</text></g></g></g></g><g class="relationship"><g transform="translate(137.9174638408013 -559.8245876809591) rotate(-112.7576266986114)" stroke-width="5" stroke="#000000"><path d="M 58.695178092152055 -5.989663490593892 L 95.96898050729241 -9.793341079425122 A 40 40 0 0 1 100.0297693144747 -10 L 118 -10 L 226 -10 A 10 10 0 0 1 236 -1.7763568394002505e-15 L 236 0 L 236 1.7763568394002505e-15 A 10 10 0 0 1 226 10 L 118 10 L 100.0297693144747 10 A 40 40 0 0 0 95.96898050729241 9.793341079425122 L 83.42887907965451 8.513662064369711 L 83.42887907965451 8.513662064369711"/><polygon points="-24.8621506177483,0 -27.62461179749811,9.20820393249937 0,0 -27.62461179749811,-9.20820393249937" fill="#000000" transform="rotate(185.8266894420084) translate(-59 0)" stroke="none"/></g><g transform="translate(50.49304463371182 -768.2303719728138) rotate(-22.757626698611404) translate(0 -13)"><g transform="translate(0 0)"><g transform="translate(-59.68359375 0)" fill="#ffffff" stroke="#000000" stroke-width="0"><rect x="0" y="0" width="119.3671875" height="26" rx="5" ry="5" stroke="none"/><text xml:space="preserve" x="5" y="17.5" stroke="none" text-anchor="left" font-family="sans-serif" font-size="16" font-weight="normal" fill="#000000">SUPERSEDES</text></g></g></g></g><g class="relationship"><g transform="translate(137.9174638408013 -559.8245876809591) rotate(-19.913192158995685)" stroke-width="5" stroke="#000000"><path d="M 58.695178092152055 -5.989663490593892 L 95.96898050729241 -9.793341079425122 A 40 40 0 0 1 100.0297693144747 -10 L 118 -10 L 226 -10 A 10 10 0 0 1 236 -1.7763568394002505e-15 L 236 0 L 236 1.7763568394002505e-15 A 10 10 0 0 1 226 10 L 118 10 L 100.0297693144747 10 A 40 40 0 0 0 95.96898050729241 9.793341079425122 L 83.42887907965451 8.513662064369711 L 83.42887907965451 8.513662064369711"/><polygon points="-24.8621506177483,0 -27.62461179749811,9.20820393249937 0,0 -27.62461179749811,-9.20820393249937" fill="#000000" transform="rotate(185.8266894420084) translate(-59 0)" stroke="none"/></g><g transform="translate(350.40486301281214 -636.7992925723358) rotate(70.08680784100432) translate(0 -13)"><g transform="translate(0 0)"><g transform="translate(-87.25390625 0)" fill="#ffffff" stroke="#000000" stroke-width="0"><rect x="0" y="0" width="174.5078125" height="26" rx="5" ry="5" stroke="none"/><text xml:space="preserve" x="5" y="17.5" stroke="none" text-anchor="left" font-family="sans-serif" font-size="16" font-weight="normal" fill="#000000">IS_SUPERSEDED_BY</text></g></g></g></g><g class="relationship"><g transform="translate(137.9174638408013 -559.8245876809591) rotate(154.39793876177288)" stroke-width="5" stroke="#000000"><path d="M 58.695178092152055 -5.989663490593891 L 95.96898050729243 -9.793341079425122 A 40 40 0 0 1 100.02976931447472 -10 L 213.2863421755406 -10 L 326.5429150366065 -10 A 40 40 0 0 1 330.6037038437888 -9.79334107942512 L 343.1438052714267 -8.51366206436971 L 343.1438052714267 -8.51366206436971"/><polygon points="-24.8621506177483,0 -27.62461179749811,9.20820393249937 0,0 -27.62461179749811,-9.20820393249937" fill="#000000" transform="translate(426.5726843510812 0) rotate(5.826689442008371) translate(-59 0)" stroke="none"/></g><g transform="translate(-50.10659950364035 -458.6415092435683) rotate(334.3979387617728) translate(0 -13)"><g transform="translate(0 0)"><g transform="translate(-104.42578125 0)" fill="#ffffff" stroke="#000000" stroke-width="0"><rect x="0" y="0" width="208.8515625" height="26" rx="5" ry="5" stroke="none"/><text xml:space="preserve" x="5" y="17.5" stroke="none" text-anchor="left" font-family="sans-serif" font-size="16" font-weight="normal" fill="#000000">STRATEGIC_OBJECTIVES</text></g></g></g></g><g class="relationship"><g transform="translate(-246.7730266941337 -375.4947704335093) rotate(-25.602061238227133)" stroke-width="5" stroke="#000000"><path d="M 58.695178092152055 -5.989663490593891 L 95.96898050729243 -9.793341079425122 A 40 40 0 0 1 100.02976931447472 -10 L 213.2863421755406 -10 L 326.5429150366065 -10 A 40 40 0 0 1 330.6037038437888 -9.79334107942512 L 343.1438052714267 -8.51366206436971 L 343.1438052714267 -8.51366206436971"/><polygon points="-24.8621506177483,0 -27.62461179749811,9.20820393249937 0,0 -27.62461179749811,-9.20820393249937" fill="#000000" transform="translate(426.5726843510812 0) rotate(5.826689442008371) translate(-59 0)" stroke="none"/></g><g transform="translate(-58.74896334969205 -476.6778488709001) rotate(-25.602061238227133) translate(0 -13)"><g transform="translate(0 0)"><g transform="translate(-157.48046875 0)" fill="#ffffff" stroke="#000000" stroke-width="0"><rect x="0" y="0" width="314.9609375" height="26" rx="5" ry="5" stroke="none"/><text xml:space="preserve" x="5" y="17.5" stroke="none" text-anchor="left" font-family="sans-serif" font-size="16" font-weight="normal" fill="#000000">OBJECTIVE_FOR_BUSINESS_DOMAINS</text></g></g></g></g><g class="relationship"><g transform="translate(601.1411061632298 -71.5133699177616) rotate(-150.00000000000003)" stroke-width="5" stroke="#000000"><path d="M 58.695178092152055 -5.989663490593891 L 95.96898050729243 -9.793341079425122 A 40 40 0 0 1 100.02976931447472 -10 L 219.8521280327291 -10 L 339.6744867509835 -10 A 40 40 0 0 1 343.7352755581658 -9.79334107942512 L 356.2753769858037 -8.51366206436971 L 356.2753769858037 -8.51366206436971"/><polygon points="-24.8621506177483,0 -27.62461179749811,9.20820393249937 0,0 -27.62461179749811,-9.20820393249937" fill="#000000" transform="translate(439.7042560654582 0) rotate(5.826689442008371) translate(-59 0)" stroke="none"/></g><g transform="translate(405.7435782108174 -172.77917989628173) rotate(29.999999999999993) translate(0 -13)"><g transform="translate(0 0)"><g transform="translate(-48.86328125 0)" fill="#ffffff" stroke="#000000" stroke-width="0"><rect x="0" y="0" width="97.7265625" height="26" rx="5" ry="5" stroke="none"/><text xml:space="preserve" x="5" y="17.5" stroke="none" text-anchor="left" font-family="sans-serif" font-size="16" font-weight="normal" fill="#000000">SUPPORTS</text></g></g></g></g><g class="relationship"><g transform="translate(220.3460502584051 -291.3654979504907) rotate(29.999999999999996)" stroke-width="5" stroke="#000000"><path d="M 58.695178092152055 -5.989663490593891 L 95.96898050729243 -9.793341079425122 A 40 40 0 0 1 100.02976931447472 -10 L 219.8521280327291 -10 L 339.6744867509835 -10 A 40 40 0 0 1 343.7352755581658 -9.79334107942512 L 356.2753769858037 -8.51366206436971 L 356.2753769858037 -8.51366206436971"/><polygon points="-24.8621506177483,0 -27.62461179749811,9.20820393249937 0,0 -27.62461179749811,-9.20820393249937" fill="#000000" transform="translate(439.7042560654582 0) rotate(5.826689442008371) translate(-59 0)" stroke="none"/></g><g transform="translate(415.7435782108174 -190.09968797197052) rotate(29.999999999999996) translate(0 -13)"><g transform="translate(0 0)"><g transform="translate(-81.76953125 0)" fill="#ffffff" stroke="#000000" stroke-width="0"><rect x="0" y="0" width="163.5390625" height="26" rx="5" ry="5" stroke="none"/><text xml:space="preserve" x="5" y="17.5" stroke="none" text-anchor="left" font-family="sans-serif" font-size="16" font-weight="normal" fill="#000000">IS_SUPPORTED_BY</text></g></g></g></g><g class="relationship"><g transform="translate(444.5771413080128 -490.01626074063125) rotate(138.46163142876216)" stroke-width="5" stroke="#000000"><path d="M 59 0 L 215.70705299036987 0"/><polygon points="-24.8621506177483,0 -27.62461179749811,9.20820393249937 0,0 -27.62461179749811,-9.20820393249937" fill="#000000" transform="translate(240.5692036081182 0) rotate(0)" stroke="none"/></g><g transform="translate(341.76640263870627 -398.9341919513518) rotate(318.4616314287622) translate(0 -13)"><g transform="translate(0 0)"><g transform="translate(-81.76953125 0)" fill="#ffffff" stroke="#000000" stroke-width="0"><rect x="0" y="0" width="163.5390625" height="26" rx="5" ry="5" stroke="none"/><text xml:space="preserve" x="5" y="17.5" stroke="none" text-anchor="left" font-family="sans-serif" font-size="16" font-weight="normal" fill="#000000">IS_SUPPORTED_BY</text></g></g></g></g><g class="relationship"><g transform="translate(515.171799069796 -238.26666944924398) rotate(-169.79034274999805)" stroke-width="5" stroke="#000000"><path d="M 59 0 L 215.70705299036982 0"/><polygon points="-24.8621506177483,0 -27.62461179749811,9.20820393249937 0,0 -27.62461179749811,-9.20820393249937" fill="#000000" transform="translate(240.56920360811813 0) rotate(0)" stroke="none"/></g><g transform="translate(379.99316317168757 -262.61266783481244) rotate(10.209657250001948) translate(0 -13)"><g transform="translate(0 0)"><g transform="translate(-46.34375 0)" fill="#ffffff" stroke="#000000" stroke-width="0"><rect x="0" y="0" width="92.6875" height="26" rx="5" ry="5" stroke="none"/><text xml:space="preserve" x="5" y="17.5" stroke="none" text-anchor="left" font-family="sans-serif" font-size="16" font-weight="normal" fill="#000000">PROVIDES</text></g></g></g></g><g class="relationship"><g transform="translate(852.3255306143142 -39.82767651014913) rotate(90)" stroke-width="5" stroke="#000000"><path d="M 59 0 L 93.62378250051351 0"/><polygon points="-24.8621506177483,0 -27.62461179749811,9.20820393249937 0,0 -27.62461179749811,-9.20820393249937" fill="#000000" transform="translate(118.48593311826181 0) rotate(0)" stroke="none"/></g><g transform="translate(852.3255306143142 36.48421474010763) rotate(270) translate(0 -13)"><g transform="translate(0 0)"><g transform="translate(-61.0078125 0)" fill="#ffffff" stroke="#000000" stroke-width="0"><rect x="0" y="0" width="122.015625" height="26" rx="5" ry="5" stroke="none"/><text xml:space="preserve" x="5" y="17.5" stroke="none" text-anchor="left" font-family="sans-serif" font-size="16" font-weight="normal" fill="#000000">MEMBERS_OF</text></g></g></g></g><g class="relationship"><g transform="translate(1000.2306131067883 -118.5208609665186) rotate(120.00000000000001)" stroke-width="5" stroke="#000000"><path d="M 59 0 L 211.9480143672 0"/><polygon points="-24.8621506177483,0 -27.62461179749811,9.20820393249937 0,0 -27.62461179749811,-9.20820393249937" fill="#000000" transform="translate(236.8101649849483 0) rotate(0)" stroke="none"/></g><g transform="translate(932.4936095149883 -1.1969291930454773) rotate(300.00000000000006) translate(0 -13)"><g transform="translate(0 0)"><g transform="translate(-61.0078125 0)" fill="#ffffff" stroke="#000000" stroke-width="0"><rect x="0" y="0" width="122.015625" height="26" rx="5" ry="5" stroke="none"/><text xml:space="preserve" x="5" y="17.5" stroke="none" text-anchor="left" font-family="sans-serif" font-size="16" font-weight="normal" fill="#000000">MEMBERS_OF</text></g></g></g></g><g class="relationship"><g transform="translate(815.0751256935895 -213.36056615387676) rotate(-175.25264522348337)" stroke-width="5" stroke="#000000"><path d="M 59 0 L 217.0735888705639 0"/><polygon points="-24.8621506177483,0 -27.62461179749811,9.20820393249937 0,0 -27.62461179749811,-9.20820393249937" fill="#000000" transform="translate(241.9357394883122 0) rotate(0)" stroke="none"/></g><g transform="translate(677.5118907052321 -224.7847946839016) rotate(4.74735477651663) translate(0 -13)"><g transform="translate(0 0)"><g transform="translate(-61.0078125 0)" fill="#ffffff" stroke="#000000" stroke-width="0"><rect x="0" y="0" width="122.015625" height="26" rx="5" ry="5" stroke="none"/><text xml:space="preserve" x="5" y="17.5" stroke="none" text-anchor="left" font-family="sans-serif" font-size="16" font-weight="normal" fill="#000000">MEMBERS_OF</text></g></g></g></g><g class="relationship"><g transform="translate(815.0751256935895 -213.36056615387676) rotate(77.88479312414644)" stroke-width="5" stroke="#000000"><path d="M 59 0 L 93.62378250051351 0"/><polygon points="-24.8621506177483,0 -27.62461179749811,9.20820393249937 0,0 -27.62461179749811,-9.20820393249937" fill="#000000" transform="translate(118.48593311826181 0) rotate(0)" stroke="none"/></g><g transform="translate(831.0913180723076 -138.7483263545053) rotate(77.88479312414644) translate(0 -13)"><g transform="translate(0 0)"><g transform="translate(-34.34375 0)" fill="#ffffff" stroke="#000000" stroke-width="0"><rect x="0" y="0" width="68.6875" height="26" rx="5" ry="5" stroke="none"/><text xml:space="preserve" x="5" y="17.5" stroke="none" text-anchor="left" font-family="sans-serif" font-size="16" font-weight="normal" fill="#000000">RAISES</text></g></g></g></g><g class="relationship"><g transform="translate(174.71483817056748 84.94143952773206) rotate(45.00000000000001)" stroke-width="5" stroke="#000000"><path d="M 59 0 L 156.87727513625947 0"/><polygon points="-24.8621506177483,0 -27.62461179749811,9.20820393249937 0,0 -27.62461179749811,-9.20820393249937" fill="#000000" transform="translate(181.73942575400775 0) rotate(0)" stroke="none"/></g><g transform="translate(251.03898074702903 161.26558210419364) rotate(45.00000000000001) translate(0 -13)"><g transform="translate(0 0)"><g transform="translate(-61.0078125 0)" fill="#ffffff" stroke="#000000" stroke-width="0"><rect x="0" y="0" width="122.015625" height="26" rx="5" ry="5" stroke="none"/><text xml:space="preserve" x="5" y="17.5" stroke="none" text-anchor="left" font-family="sans-serif" font-size="16" font-weight="normal" fill="#000000">MEMBERS_OF</text></g></g></g></g><g class="relationship"><g transform="translate(515.171799069796 84.94143952773206) rotate(135)" stroke-width="5" stroke="#000000"><path d="M 59 0 L 156.87727513625947 0"/><polygon points="-24.8621506177483,0 -27.62461179749811,9.20820393249937 0,0 -27.62461179749811,-9.20820393249937" fill="#000000" transform="translate(181.73942575400778 0) rotate(0)" stroke="none"/></g><g transform="translate(438.8476564933344 161.26558210419364) rotate(315) translate(0 -13)"><g transform="translate(0 0)"><g transform="translate(-61.0078125 0)" fill="#ffffff" stroke="#000000" stroke-width="0"><rect x="0" y="0" width="122.015625" height="26" rx="5" ry="5" stroke="none"/><text xml:space="preserve" x="5" y="17.5" stroke="none" text-anchor="left" font-family="sans-serif" font-size="16" font-weight="normal" fill="#000000">MEMBERS_OF</text></g></g></g></g><g class="relationship"><g transform="translate(174.71483817056748 84.94143952773206) rotate(0)" stroke-width="5" stroke="#000000"><path d="M 58.695178092152055 -5.989663490593891 L 95.96898050729243 -9.793341079425122 A 40 40 0 0 1 100.02976931447472 -10 L 170.22848044961424 -10 L 240.42719158475379 -10 A 40 40 0 0 1 244.48798039193608 -9.79334107942512 L 257.02808181957397 -8.51366206436971 L 257.02808181957397 -8.51366206436971"/><polygon points="-24.8621506177483,0 -27.62461179749811,9.20820393249937 0,0 -27.62461179749811,-9.20820393249937" fill="#000000" transform="translate(340.4569608992285 0) rotate(5.826689442008371) translate(-59 0)" stroke="none"/></g><g transform="translate(344.9433186201817 74.94143952773206) rotate(0) translate(0 -13)"><g transform="translate(0 0)"><g transform="translate(-26.78515625 0)" fill="#ffffff" stroke="#000000" stroke-width="0"><rect x="0" y="0" width="53.5703125" height="26" rx="5" ry="5" stroke="none"/><text xml:space="preserve" x="5" y="17.5" stroke="none" text-anchor="left" font-family="sans-serif" font-size="16" font-weight="normal" fill="#000000">USES</text></g></g></g></g><g class="relationship"><g transform="translate(515.171799069796 84.94143952773206) rotate(180)" stroke-width="5" stroke="#000000"><path d="M 58.695178092152055 -5.989663490593891 L 95.96898050729243 -9.793341079425122 A 40 40 0 0 1 100.02976931447472 -10 L 170.22848044961424 -10 L 240.42719158475379 -10 A 40 40 0 0 1 244.48798039193608 -9.79334107942512 L 257.02808181957397 -8.51366206436971 L 257.02808181957397 -8.51366206436971"/><polygon points="-24.8621506177483,0 -27.62461179749811,9.20820393249937 0,0 -27.62461179749811,-9.20820393249937" fill="#000000" transform="translate(340.4569608992285 0) rotate(5.826689442008371) translate(-59 0)" stroke="none"/></g><g transform="translate(344.9433186201817 94.94143952773209) rotate(360) translate(0 -13)"><g transform="translate(0 0)"><g transform="translate(-42.34765625 0)" fill="#ffffff" stroke="#000000" stroke-width="0"><rect x="0" y="0" width="84.6953125" height="26" rx="5" ry="5" stroke="none"/><text xml:space="preserve" x="5" y="17.5" stroke="none" text-anchor="left" font-family="sans-serif" font-size="16" font-weight="normal" fill="#000000">USED_BY</text></g></g></g></g><g class="relationship"><g transform="translate(174.71483817056748 84.94143952773206) rotate(-83.08603442583943)" stroke-width="5" stroke="#000000"><path d="M 58.695178092152055 -5.989663490593891 L 95.96898050729243 -9.793341079425122 A 40 40 0 0 1 100.02976931447472 -10 L 189.53173791666413 -10 L 279.03370651885353 -10 A 40 40 0 0 1 283.0944953260359 -9.79334107942512 L 295.63459675367375 -8.51366206436971 L 295.63459675367375 -8.51366206436971"/><polygon points="-24.8621506177483,0 -27.62461179749811,9.20820393249937 0,0 -27.62461179749811,-9.20820393249937" fill="#000000" transform="translate(379.06347583332825 0) rotate(5.826689442008371) translate(-59 0)" stroke="none"/></g><g transform="translate(187.6031639179356 -104.41581736288936) rotate(-83.08603442583943) translate(0 -13)"><g transform="translate(0 0)"><g transform="translate(-39.671875 0)" fill="#ffffff" stroke="#000000" stroke-width="0"><rect x="0" y="0" width="79.34375" height="26" rx="5" ry="5" stroke="none"/><text xml:space="preserve" x="5" y="17.5" stroke="none" text-anchor="left" font-family="sans-serif" font-size="16" font-weight="normal" fill="#000000">DEFINES</text></g></g></g></g><g class="relationship"><g transform="translate(220.3460502584051 -291.3654979504907) rotate(96.91396557416057)" stroke-width="5" stroke="#000000"><path d="M 58.695178092152055 -5.989663490593891 L 95.96898050729243 -9.793341079425122 A 40 40 0 0 1 100.02976931447472 -10 L 189.53173791666413 -10 L 279.03370651885353 -10 A 40 40 0 0 1 283.0944953260359 -9.79334107942512 L 295.63459675367375 -8.51366206436971 L 295.63459675367375 -8.51366206436971"/><polygon points="-24.8621506177483,0 -27.62461179749811,9.20820393249937 0,0 -27.62461179749811,-9.20820393249937" fill="#000000" transform="translate(379.06347583332825 0) rotate(5.826689442008371) translate(-59 0)" stroke="none"/></g><g transform="translate(207.457724511037 -102.00824105986928) rotate(276.91396557416056) translate(0 -13)"><g transform="translate(0 0)"><g transform="translate(-55.234375 0)" fill="#ffffff" stroke="#000000" stroke-width="0"><rect x="0" y="0" width="110.46875" height="26" rx="5" ry="5" stroke="none"/><text xml:space="preserve" x="5" y="17.5" stroke="none" text-anchor="left" font-family="sans-serif" font-size="16" font-weight="normal" fill="#000000">DEFINED_BY</text></g></g></g></g><g class="node"><g fill="#ffffff" stroke="#000000" stroke-width="4"><circle cx="-246.7730266941337" cy="-375.4947704335093" r="52"/></g><g transform="translate(-246.7730266941337 -375.4947704335093)"><g transform="scale(0.19718207178382396) translate(0 -59)"><g transform="translate(0 0)"><g fill="#000000" font-family="sans-serif" font-size="50" font-weight="normal" text-anchor="middle"><text xml:space="preserve" x="0" y="43" stroke="none">Business_Objective</text></g></g><g transform="translate(0 64)"><g transform="translate(-220.45703125 0)"><g fill="#ffffff" stroke="#000000" stroke-width="4"><rect x="0" y="0" width="440.9140625" height="54" rx="27" ry="27"/><text xml:space="preserve" x="27" y="37.5" stroke="none" font-family="sans-serif" font-size="40" font-weight="normal" fill="#000000">Business_Conceptual</text></g></g></g></g></g></g><g class="node"><g fill="#ffffff" stroke="#000000" stroke-width="4"><circle cx="-50.489893375309094" cy="3.2362510171129486" r="52"/></g><g transform="translate(-50.489893375309094 3.2362510171129486)"><g transform="scale(0.19718207178382396) translate(0 -59)"><g transform="translate(0 0)"><g fill="#000000" font-family="sans-serif" font-size="50" font-weight="normal" text-anchor="middle"><text xml:space="preserve" x="0" y="43" stroke="none">Business_Principle</text></g></g><g transform="translate(0 64)"><g transform="translate(-220.45703125 0)"><g fill="#ffffff" stroke="#000000" stroke-width="4"><rect x="0" y="0" width="440.9140625" height="54" rx="27" ry="27"/><text xml:space="preserve" x="27" y="37.5" stroke="none" font-family="sans-serif" font-size="40" font-weight="normal" fill="#000000">Business_Conceptual</text></g></g></g></g></g></g><g class="node"><g fill="#ffffff" stroke="#000000" stroke-width="4"><circle cx="-351.96534165515396" cy="-71.51336991776162" r="52"/></g><g transform="translate(-351.96534165515396 -71.51336991776162)"><g transform="scale(0.19718207178382396) translate(0 -59)"><g transform="translate(0 0)"><g fill="#000000" font-family="sans-serif" font-size="50" font-weight="normal" text-anchor="middle"><text xml:space="preserve" x="0" y="43" stroke="none">Business_Driver</text></g></g><g transform="translate(0 64)"><g transform="translate(-220.45703125 0)"><g fill="#ffffff" stroke="#000000" stroke-width="4"><rect x="0" y="0" width="440.9140625" height="54" rx="27" ry="27"/><text xml:space="preserve" x="27" y="37.5" stroke="none" font-family="sans-serif" font-size="40" font-weight="normal" fill="#000000">Business_Conceptual</text></g></g></g></g></g></g><g class="node"><g fill="#ffffff" stroke="#000000" stroke-width="4"><circle cx="-155.1233517024938" cy="125.3286200348985" r="52"/></g><g transform="translate(-155.1233517024938 125.3286200348985)"><g transform="scale(0.18414273774333992) translate(0 -59)"><g transform="translate(0 0)"><g fill="#000000" font-family="sans-serif" font-size="50" font-weight="normal" text-anchor="middle"><text xml:space="preserve" x="0" y="43" stroke="none">Application_Driver</text></g></g><g transform="translate(0 64)"><g transform="translate(-237.146484375 0)"><g fill="#ffffff" stroke="#000000" stroke-width="4"><rect x="0" y="0" width="474.29296875" height="54" rx="27" ry="27"/><text xml:space="preserve" x="27" y="37.5" stroke="none" font-family="sans-serif" font-size="40" font-weight="normal" fill="#000000">Application_Conceptual</text></g></g></g></g></g></g><g class="node"><g fill="#ffffff" stroke="#000000" stroke-width="4"><circle cx="220.3460502584051" cy="-291.3654979504907" r="52"/></g><g transform="translate(220.3460502584051 -291.3654979504907)"><g transform="scale(0.1933612259558292) translate(0 -59)"><g transform="translate(0 0)"><g fill="#000000" font-family="sans-serif" font-size="50" font-weight="normal" text-anchor="middle"><text xml:space="preserve" x="0" y="43" stroke="none">Business_Capability</text></g></g><g transform="translate(0 64)"><g transform="translate(-220.45703125 0)"><g fill="#ffffff" stroke="#000000" stroke-width="4"><rect x="0" y="0" width="440.9140625" height="54" rx="27" ry="27"/><text xml:space="preserve" x="27" y="37.5" stroke="none" font-family="sans-serif" font-size="40" font-weight="normal" fill="#000000">Business_Conceptual</text></g></g></g></g></g></g><g class="node"><g fill="#ffffff" stroke="#000000" stroke-width="4"><circle cx="665.6288306352064" cy="-455.68595328523946" r="52"/></g><g transform="translate(665.6288306352064 -455.68595328523946)"><g transform="scale(0.19718207178382396) translate(0 -59)"><g transform="translate(0 0)"><g fill="#000000" font-family="sans-serif" font-size="50" font-weight="normal" text-anchor="middle"><text xml:space="preserve" x="0" y="43" stroke="none">Skill_Type</text></g></g><g transform="translate(0 64)"><g transform="translate(-220.45703125 0)"><g fill="#ffffff" stroke="#000000" stroke-width="4"><rect x="0" y="0" width="440.9140625" height="54" rx="27" ry="27"/><text xml:space="preserve" x="27" y="37.5" stroke="none" font-family="sans-serif" font-size="40" font-weight="normal" fill="#000000">Business_Conceptual</text></g></g></g></g></g></g><g class="node"><g fill="#ffffff" stroke="#000000" stroke-width="4"><circle cx="137.9174638408013" cy="-559.8245876809591" r="52"/></g><g transform="translate(137.9174638408013 -559.8245876809591)"><g transform="scale(0.18927906884190993) translate(0 -89)"><g transform="translate(0 0)"><g fill="#000000" font-family="sans-serif" font-size="50" font-weight="normal" text-anchor="middle"><text xml:space="preserve" x="0" y="43" stroke="none">Business_Domain</text><text xml:space="preserve" x="0" y="103" stroke="none" text-anchor="middle"></text></g></g><g transform="translate(0 124)"><g transform="translate(-220.45703125 0)"><g fill="#ffffff" stroke="#000000" stroke-width="4"><rect x="0" y="0" width="440.9140625" height="54" rx="27" ry="27"/><text xml:space="preserve" x="27" y="37.5" stroke="none" font-family="sans-serif" font-size="40" font-weight="normal" fill="#000000">Business_Conceptual</text></g></g></g></g></g></g><g class="node"><g fill="#ffffff" stroke="#000000" stroke-width="4"><circle cx="601.1411061632298" cy="-71.5133699177616" r="52"/></g><g transform="translate(601.1411061632298 -71.5133699177616)"><g transform="scale(0.17789330594377595) translate(0 -59)"><g transform="translate(0 0)"><g fill="#000000" font-family="sans-serif" font-size="50" font-weight="normal" text-anchor="middle"><text xml:space="preserve" x="0" y="43" stroke="none">Application_Capability</text></g></g><g transform="translate(0 64)"><g transform="translate(-237.146484375 0)"><g fill="#ffffff" stroke="#000000" stroke-width="4"><rect x="0" y="0" width="474.29296875" height="54" rx="27" ry="27"/><text xml:space="preserve" x="27" y="37.5" stroke="none" font-family="sans-serif" font-size="40" font-weight="normal" fill="#000000">Application_Conceptual</text></g></g></g></g></g></g><g class="node"><g fill="#ffffff" stroke="#000000" stroke-width="4"><circle cx="444.5771413080128" cy="-490.01626074063125" r="52"/></g><g transform="translate(444.5771413080128 -490.01626074063125)"><g transform="scale(0.19718207178382396) translate(0 -59)"><g transform="translate(0 0)"><g fill="#000000" font-family="sans-serif" font-size="50" font-weight="normal" text-anchor="middle"><text xml:space="preserve" x="0" y="43" stroke="none">Product_Concept</text></g></g><g transform="translate(0 64)"><g transform="translate(-220.45703125 0)"><g fill="#ffffff" stroke="#000000" stroke-width="4"><rect x="0" y="0" width="440.9140625" height="54" rx="27" ry="27"/><text xml:space="preserve" x="27" y="37.5" stroke="none" font-family="sans-serif" font-size="40" font-weight="normal" fill="#000000">Business_Conceptual</text></g></g></g></g></g></g><g class="node"><g fill="#ffffff" stroke="#000000" stroke-width="4"><circle cx="515.171799069796" cy="-238.26666944924398" r="52"/></g><g transform="translate(515.171799069796 -238.26666944924398)"><g transform="scale(0.1791680676774745) translate(0 -89)"><g transform="translate(0 0)"><g fill="#000000" font-family="sans-serif" font-size="50" font-weight="normal" text-anchor="middle"><text xml:space="preserve" x="0" y="43" stroke="none">Business_Role_Type</text><text xml:space="preserve" x="0" y="103" stroke="none" text-anchor="middle"></text></g></g><g transform="translate(0 124)"><g transform="translate(-220.45703125 0)"><g fill="#ffffff" stroke="#000000" stroke-width="4"><rect x="0" y="0" width="440.9140625" height="54" rx="27" ry="27"/><text xml:space="preserve" x="27" y="37.5" stroke="none" font-family="sans-serif" font-size="40" font-weight="normal" fill="#000000">Business_Conceptual</text></g></g></g></g></g></g><g class="node"><g fill="#ffffff" stroke="#000000" stroke-width="4"><circle cx="852.3255306143142" cy="137.65825660811268" r="52"/></g><g transform="translate(852.3255306143142 137.65825660811268)"><g transform="scale(0.13843909827891696) translate(0 -59)"><g transform="translate(0 0)"><g fill="#000000" font-family="sans-serif" font-size="50" font-weight="normal" text-anchor="middle"><text xml:space="preserve" x="0" y="43" stroke="none">Conceptual_Business_Event</text></g></g><g transform="translate(0 64)"><g transform="translate(-220.45703125 0)"><g fill="#ffffff" stroke="#000000" stroke-width="4"><rect x="0" y="0" width="440.9140625" height="54" rx="27" ry="27"/><text xml:space="preserve" x="27" y="37.5" stroke="none" font-family="sans-serif" font-size="40" font-weight="normal" fill="#000000">Business_Conceptual</text></g></g></g></g></g></g><g class="node"><g fill="#ffffff" stroke="#000000" stroke-width="4"><circle cx="852.3255306143142" cy="-39.82767651014913" r="52"/></g><g transform="translate(852.3255306143142 -39.82767651014913)"><g transform="scale(0.10481160835511363) translate(0 -59)"><g transform="translate(0 0)"><g fill="#000000" font-family="sans-serif" font-size="50" font-weight="normal" text-anchor="middle"><text xml:space="preserve" x="0" y="43" stroke="none">External_Conceptual_Business_Event</text></g></g><g transform="translate(0 64)"><g transform="translate(-220.45703125 0)"><g fill="#ffffff" stroke="#000000" stroke-width="4"><rect x="0" y="0" width="440.9140625" height="54" rx="27" ry="27"/><text xml:space="preserve" x="27" y="37.5" stroke="none" font-family="sans-serif" font-size="40" font-weight="normal" fill="#000000">Business_Conceptual</text></g></g></g></g></g></g><g class="node"><g fill="#ffffff" stroke="#000000" stroke-width="4"><circle cx="1000.2306131067883" cy="-118.5208609665186" r="52"/></g><g transform="translate(1000.2306131067883 -118.5208609665186)"><g transform="scale(0.09441100750726292) translate(0 -59)"><g transform="translate(0 0)"><g fill="#000000" font-family="sans-serif" font-size="50" font-weight="normal" text-anchor="middle"><text xml:space="preserve" x="0" y="43" stroke="none">Time_Based_Conceptual_Business_Event</text></g></g><g transform="translate(0 64)"><g transform="translate(-220.45703125 0)"><g fill="#ffffff" stroke="#000000" stroke-width="4"><rect x="0" y="0" width="440.9140625" height="54" rx="27" ry="27"/><text xml:space="preserve" x="27" y="37.5" stroke="none" font-family="sans-serif" font-size="40" font-weight="normal" fill="#000000">Business_Conceptual</text></g></g></g></g></g></g><g class="node"><g fill="#ffffff" stroke="#000000" stroke-width="4"><circle cx="815.0751256935895" cy="-213.36056615387676" r="52"/></g><g transform="translate(815.0751256935895 -213.36056615387676)"><g transform="scale(0.13022618318310888) translate(0 -59)"><g transform="translate(0 0)"><g fill="#000000" font-family="sans-serif" font-size="50" font-weight="normal" text-anchor="middle"><text xml:space="preserve" x="0" y="43" stroke="none">External_Business_Role_Type</text></g></g><g transform="translate(0 64)"><g transform="translate(-220.45703125 0)"><g fill="#ffffff" stroke="#000000" stroke-width="4"><rect x="0" y="0" width="440.9140625" height="54" rx="27" ry="27"/><text xml:space="preserve" x="27" y="37.5" stroke="none" font-family="sans-serif" font-size="40" font-weight="normal" fill="#000000">Business_Conceptual</text></g></g></g></g></g></g><g class="node"><g fill="#ffffff" stroke="#000000" stroke-width="4"><circle cx="174.71483817056748" cy="84.94143952773206" r="52"/></g><g transform="translate(174.71483817056748 84.94143952773206)"><g transform="scale(0.1451557719323079) translate(0 -59)"><g transform="translate(0 0)"><g fill="#000000" font-family="sans-serif" font-size="50" font-weight="normal" text-anchor="middle"><text xml:space="preserve" x="0" y="43" stroke="none">Business_Capability_Chain</text></g></g><g transform="translate(0 64)"><g transform="translate(-220.45703125 0)"><g fill="#ffffff" stroke="#000000" stroke-width="4"><rect x="0" y="0" width="440.9140625" height="54" rx="27" ry="27"/><text xml:space="preserve" x="27" y="37.5" stroke="none" font-family="sans-serif" font-size="40" font-weight="normal" fill="#000000">Business_Conceptual</text></g></g></g></g></g></g><g class="node"><g fill="#ffffff" stroke="#000000" stroke-width="4"><circle cx="515.171799069796" cy="84.94143952773206" r="52"/></g><g transform="translate(515.171799069796 84.94143952773206)"><g transform="scale(0.11933398838124329) translate(0 -59)"><g transform="translate(0 0)"><g fill="#000000" font-family="sans-serif" font-size="50" font-weight="normal" text-anchor="middle"><text xml:space="preserve" x="0" y="43" stroke="none">Business_Capability_Chain_Type</text></g></g><g transform="translate(0 64)"><g transform="translate(-220.45703125 0)"><g fill="#ffffff" stroke="#000000" stroke-width="4"><rect x="0" y="0" width="440.9140625" height="54" rx="27" ry="27"/><text xml:space="preserve" x="27" y="37.5" stroke="none" font-family="sans-serif" font-size="40" font-weight="normal" fill="#000000">Business_Conceptual</text></g></g></g></g></g></g><g class="node"><g fill="#ffffff" stroke="#000000" stroke-width="4"><circle cx="344.9433186201817" cy="255.16991997734635" r="52"/></g><g transform="translate(344.9433186201817 255.16991997734635)"><g transform="scale(0.13671702846204883) translate(0 -59)"><g transform="translate(0 0)"><g fill="#000000" font-family="sans-serif" font-size="50" font-weight="normal" text-anchor="middle"><text xml:space="preserve" x="0" y="43" stroke="none">Conceptual_Business_Model</text></g></g><g transform="translate(0 64)"><g transform="translate(-220.45703125 0)"><g fill="#ffffff" stroke="#000000" stroke-width="4"><rect x="0" y="0" width="440.9140625" height="54" rx="27" ry="27"/><text xml:space="preserve" x="27" y="37.5" stroke="none" font-family="sans-serif" font-size="40" font-weight="normal" fill="#000000">Business_Conceptual</text></g></g></g></g></g></g></g></svg>