<svg xmlns="http://www.w3.org/2000/svg" width="1399" height="861" viewBox="0 0 1399 861"><defs><style type="text/css"/></defs><g transform="translate(688.1732669884215 803.5476426510841) scale(1)"><g class="relationship"><g transform="translate(-50.489893375309094 3.2362510171129486) rotate(-117.39613853841165)" stroke-width="5" stroke="#000000"><path d="M 58.695178092152055 -5.989663490593891 L 95.96898050729243 -9.793341079425122 A 40 40 0 0 1 100.02976931447472 -10 L 213.28634217554063 -10 L 326.54291503660653 -10 A 40 40 0 0 1 330.6037038437889 -9.79334107942512 L 343.14380527142674 -8.51366206436971 L 343.14380527142674 -8.51366206436971"/><polygon points="-24.8621506177483,0 -27.62461179749811,9.20820393249937 0,0 -27.62461179749811,-9.20820393249937" fill="#000000" transform="translate(426.57268435108125 0) rotate(5.826689442008371) translate(-59 0)" stroke="none"/></g><g transform="translate(-157.5099240185736 -181.5278602159307) rotate(62.60386146158835) translate(0 -13)"><g transform="translate(0 0)"><g transform="translate(-48.86328125 0)" fill="#ffffff" stroke="#000000" stroke-width="0"><rect x="0" y="0" width="97.7265625" height="26" rx="5" ry="5" stroke="none"/><text xml:space="preserve" x="5" y="17.5" stroke="none" text-anchor="left" font-family="sans-serif" font-size="16" font-weight="normal" fill="#000000">SUPPORTS</text></g></g></g></g><g class="relationship"><g transform="translate(-246.7730266941337 -375.4947704335093) rotate(62.60386146158835)" stroke-width="5" stroke="#000000"><path d="M 58.695178092152055 -5.989663490593891 L 95.96898050729243 -9.793341079425122 A 40 40 0 0 1 100.02976931447472 -10 L 213.28634217554063 -10 L 326.54291503660653 -10 A 40 40 0 0 1 330.6037038437889 -9.79334107942512 L 343.14380527142674 -8.51366206436971 L 343.14380527142674 -8.51366206436971"/><polygon points="-24.8621506177483,0 -27.62461179749811,9.20820393249937 0,0 -27.62461179749811,-9.20820393249937" fill="#000000" transform="translate(426.57268435108125 0) rotate(5.826689442008371) translate(-59 0)" stroke="none"/></g><g transform="translate(-139.7529960508692 -190.73065920046565) rotate(62.60386146158835) translate(0 -13)"><g transform="translate(0 0)"><g transform="translate(-81.76953125 0)" fill="#ffffff" stroke="#000000" stroke-width="0"><rect x="0" y="0" width="163.5390625" height="26" rx="5" ry="5" stroke="none"/><text xml:space="preserve" x="5" y="17.5" stroke="none" text-anchor="left" font-family="sans-serif" font-size="16" font-weight="normal" fill="#000000">IS_SUPPORTED_BY</text></g></g></g></g><g class="relationship"><g transform="translate(-246.7730266941337 -375.4947704335093) rotate(-175.80861840648907)" stroke-width="5" stroke="#000000"><path d="M 58.695178092152055 -5.989663490593892 L 95.96898050729241 -9.793341079425122 A 40 40 0 0 1 100.0297693144747 -10 L 118 -10 L 226 -10 A 10 10 0 0 1 236 -1.7763568394002505e-15 L 236 0 L 236 1.7763568394002505e-15 A 10 10 0 0 1 226 10 L 118 10 L 100.0297693144747 10 A 40 40 0 0 0 95.96898050729241 9.793341079425122 L 83.42887907965451 8.513662064369711 L 83.42887907965451 8.513662064369711"/><polygon points="-24.8621506177483,0 -27.62461179749811,9.20820393249937 0,0 -27.62461179749811,-9.20820393249937" fill="#000000" transform="rotate(185.8266894420084) translate(-59 0)" stroke="none"/></g><g transform="translate(-472.16858571650164 -392.01269926839217) rotate(-85.80861840648907) translate(0 -13)"><g transform="translate(0 0)"><g transform="translate(-59.68359375 0)" fill="#ffffff" stroke="#000000" stroke-width="0"><rect x="0" y="0" width="119.3671875" height="26" rx="5" ry="5" stroke="none"/><text xml:space="preserve" x="5" y="17.5" stroke="none" text-anchor="left" font-family="sans-serif" font-size="16" font-weight="normal" fill="#000000">SUPERSEDES</text></g></g></g></g><g class="relationship"><g transform="translate(-246.7730266941337 -375.4947704335093) rotate(-100.7053398223581)" stroke-width="5" stroke="#000000"><path d="M 58.695178092152055 -5.989663490593892 L 95.96898050729241 -9.793341079425122 A 40 40 0 0 1 100.0297693144747 -10 L 118 -10 L 226 -10 A 10 10 0 0 1 236 -1.7763568394002505e-15 L 236 0 L 236 1.7763568394002505e-15 A 10 10 0 0 1 226 10 L 118 10 L 100.0297693144747 10 A 40 40 0 0 0 95.96898050729241 9.793341079425122 L 83.42887907965451 8.513662064369711 L 83.42887907965451 8.513662064369711"/><polygon points="-24.8621506177483,0 -27.62461179749811,9.20820393249937 0,0 -27.62461179749811,-9.20820393249937" fill="#000000" transform="rotate(185.8266894420084) translate(-59 0)" stroke="none"/></g><g transform="translate(-288.75437799961225 -597.561350860565) rotate(-10.7053398223581) translate(0 -13)"><g transform="translate(0 0)"><g transform="translate(-87.25390625 0)" fill="#ffffff" stroke="#000000" stroke-width="0"><rect x="0" y="0" width="174.5078125" height="26" rx="5" ry="5" stroke="none"/><text xml:space="preserve" x="5" y="17.5" stroke="none" text-anchor="left" font-family="sans-serif" font-size="16" font-weight="normal" fill="#000000">IS_SUPERSEDED_BY</text></g></g></g></g><g class="relationship"><g transform="translate(-351.96534165515396 -71.51336991776162) rotate(-70.9118969906201)" stroke-width="5" stroke="#000000"><path d="M 58.695178092152055 -5.989663490593891 L 95.96898050729243 -9.793341079425122 A 40 40 0 0 1 100.02976931447472 -10 L 160.83385447906628 -10 L 221.63793964365786 -10 A 40 40 0 0 1 225.69872845084015 -9.79334107942512 L 238.23882987847804 -8.51366206436971 L 238.23882987847804 -8.51366206436971"/><polygon points="-24.8621506177483,0 -27.62461179749811,9.20820393249937 0,0 -27.62461179749811,-9.20820393249937" fill="#000000" transform="translate(321.66770895813255 0) rotate(5.826689442008371) translate(-59 0)" stroke="none"/></g><g transform="translate(-308.8193525331754 -226.77428698731774) rotate(-70.9118969906201) translate(0 -13)"><g transform="translate(0 0)"><g transform="translate(-50.0390625 0)" fill="#ffffff" stroke="#000000" stroke-width="0"><rect x="0" y="0" width="100.078125" height="26" rx="5" ry="5" stroke="none"/><text xml:space="preserve" x="5" y="17.5" stroke="none" text-anchor="left" font-family="sans-serif" font-size="16" font-weight="normal" fill="#000000">MOTIVATES</text></g></g></g></g><g class="relationship"><g transform="translate(-246.7730266941337 -375.4947704335093) rotate(109.0881030093799)" stroke-width="5" stroke="#000000"><path d="M 58.695178092152055 -5.989663490593891 L 95.96898050729243 -9.793341079425122 A 40 40 0 0 1 100.02976931447472 -10 L 160.83385447906628 -10 L 221.63793964365786 -10 A 40 40 0 0 1 225.69872845084015 -9.79334107942512 L 238.23882987847804 -8.51366206436971 L 238.23882987847804 -8.51366206436971"/><polygon points="-24.8621506177483,0 -27.62461179749811,9.20820393249937 0,0 -27.62461179749811,-9.20820393249937" fill="#000000" transform="translate(321.66770895813255 0) rotate(5.826689442008371) translate(-59 0)" stroke="none"/></g><g transform="translate(-289.9190158161123 -220.2338533639532) rotate(289.08810300937995) translate(0 -13)"><g transform="translate(0 0)"><g transform="translate(-77.609375 0)" fill="#ffffff" stroke="#000000" stroke-width="0"><rect x="0" y="0" width="155.21875" height="26" rx="5" ry="5" stroke="none"/><text xml:space="preserve" x="5" y="17.5" stroke="none" text-anchor="left" font-family="sans-serif" font-size="16" font-weight="normal" fill="#000000">IS_MOTIVATED_BY</text></g></g></g></g><g class="relationship"><g transform="translate(-351.96534165515396 -71.51336991776162) rotate(-132.87277775095265)" stroke-width="5" stroke="#000000"><path d="M 59 0 L 330.92213666953853 0"/><polygon points="-24.8621506177483,0 -27.62461179749811,9.20820393249937 0,0 -27.62461179749811,-9.20820393249937" fill="#000000" transform="translate(355.7842872872868 0) rotate(0)" stroke="none"/></g><g transform="translate(-484.61153945436115 -214.3937547704354) rotate(47.12722224904736) translate(0 -13)"><g transform="translate(0 0)"><g transform="translate(-138.515625 0)" fill="#ffffff" stroke="#000000" stroke-width="0"><rect x="0" y="0" width="277.03125" height="26" rx="5" ry="5" stroke="none"/><text xml:space="preserve" x="5" y="17.5" stroke="none" text-anchor="left" font-family="sans-serif" font-size="16" font-weight="normal" fill="#000000">HAS_APPLICATION_IMPLICATIONS</text></g></g></g></g><g class="relationship"><g transform="translate(238.41010815864874 -207.83562711525977) rotate(-160.93697589238937)" stroke-width="5" stroke="#000000"><path d="M 58.695178092152055 -5.989663490593891 L 95.96898050729243 -9.793341079425122 A 40 40 0 0 1 100.02976931447472 -10 L 256.66722749690047 -10 L 413.3046856793262 -10 A 40 40 0 0 1 417.36547448650856 -9.79334107942512 L 429.9055759141464 -8.51366206436971 L 429.9055759141464 -8.51366206436971"/><polygon points="-24.8621506177483,0 -27.62461179749811,9.20820393249937 0,0 -27.62461179749811,-9.20820393249937" fill="#000000" transform="translate(513.3344549938009 0) rotate(5.826689442008371) translate(-59 0)" stroke="none"/></g><g transform="translate(-7.447539338683242 -282.21359991650854) rotate(19.063024107610616) translate(0 -13)"><g transform="translate(0 0)"><g transform="translate(-48.86328125 0)" fill="#ffffff" stroke="#000000" stroke-width="0"><rect x="0" y="0" width="97.7265625" height="26" rx="5" ry="5" stroke="none"/><text xml:space="preserve" x="5" y="17.5" stroke="none" text-anchor="left" font-family="sans-serif" font-size="16" font-weight="normal" fill="#000000">SUPPORTS</text></g></g></g></g><g class="relationship"><g transform="translate(-246.7730266941337 -375.4947704335093) rotate(19.063024107610616)" stroke-width="5" stroke="#000000"><path d="M 58.695178092152055 -5.989663490593891 L 95.96898050729243 -9.793341079425122 A 40 40 0 0 1 100.02976931447472 -10 L 256.66722749690047 -10 L 413.3046856793262 -10 A 40 40 0 0 1 417.36547448650856 -9.79334107942512 L 429.9055759141464 -8.51366206436971 L 429.9055759141464 -8.51366206436971"/><polygon points="-24.8621506177483,0 -27.62461179749811,9.20820393249937 0,0 -27.62461179749811,-9.20820393249937" fill="#000000" transform="translate(513.3344549938009 0) rotate(5.826689442008371) translate(-59 0)" stroke="none"/></g><g transform="translate(-0.9153791968016947 -301.1167976322606) rotate(19.063024107610616) translate(0 -13)"><g transform="translate(0 0)"><g transform="translate(-81.76953125 0)" fill="#ffffff" stroke="#000000" stroke-width="0"><rect x="0" y="0" width="163.5390625" height="26" rx="5" ry="5" stroke="none"/><text xml:space="preserve" x="5" y="17.5" stroke="none" text-anchor="left" font-family="sans-serif" font-size="16" font-weight="normal" fill="#000000">IS_SUPPORTED_BY</text></g></g></g></g><g class="relationship"><g transform="translate(238.41010815864874 -207.83562711525977) rotate(56.69241350643939)" stroke-width="5" stroke="#000000"><path d="M 58.695178092152055 -5.989663490593892 L 95.96898050729241 -9.793341079425122 A 40 40 0 0 1 100.0297693144747 -10 L 118 -10 L 226 -10 A 10 10 0 0 1 236 -1.7763568394002505e-15 L 236 0 L 236 1.7763568394002505e-15 A 10 10 0 0 1 226 10 L 118 10 L 100.0297693144747 10 A 40 40 0 0 0 95.96898050729241 9.793341079425122 L 83.42887907965451 8.513662064369711 L 83.42887907965451 8.513662064369711"/><polygon points="-24.8621506177483,0 -27.62461179749811,9.20820393249937 0,0 -27.62461179749811,-9.20820393249937" fill="#000000" transform="rotate(185.8266894420084) translate(-59 0)" stroke="none"/></g><g transform="translate(362.51427505571087 -18.95959433506252) rotate(326.69241350643944) translate(0 -13)"><g transform="translate(0 0)"><g transform="translate(-59.68359375 0)" fill="#ffffff" stroke="#000000" stroke-width="0"><rect x="0" y="0" width="119.3671875" height="26" rx="5" ry="5" stroke="none"/><text xml:space="preserve" x="5" y="17.5" stroke="none" text-anchor="left" font-family="sans-serif" font-size="16" font-weight="normal" fill="#000000">SUPERSEDES</text></g></g></g></g><g class="relationship"><g transform="translate(238.41010815864874 -207.83562711525977) rotate(100.27017530159577)" stroke-width="5" stroke="#000000"><path d="M 58.695178092152055 -5.989663490593892 L 95.96898050729241 -9.793341079425122 A 40 40 0 0 1 100.0297693144747 -10 L 118 -10 L 226 -10 A 10 10 0 0 1 236 -1.7763568394002505e-15 L 236 0 L 236 1.7763568394002505e-15 A 10 10 0 0 1 226 10 L 118 10 L 100.0297693144747 10 A 40 40 0 0 0 95.96898050729241 9.793341079425122 L 83.42887907965451 8.513662064369711 L 83.42887907965451 8.513662064369711"/><polygon points="-24.8621506177483,0 -27.62461179749811,9.20820393249937 0,0 -27.62461179749811,-9.20820393249937" fill="#000000" transform="rotate(185.8266894420084) translate(-59 0)" stroke="none"/></g><g transform="translate(198.11655907369217 14.543395956023176) rotate(10.27017530159577) translate(0 -13)"><g transform="translate(0 0)"><g transform="translate(-87.25390625 0)" fill="#ffffff" stroke="#000000" stroke-width="0"><rect x="0" y="0" width="174.5078125" height="26" rx="5" ry="5" stroke="none"/><text xml:space="preserve" x="5" y="17.5" stroke="none" text-anchor="left" font-family="sans-serif" font-size="16" font-weight="normal" fill="#000000">IS_SUPERSEDED_BY</text></g></g></g></g><g class="relationship"><g transform="translate(238.41010815864874 -207.83562711525977) rotate(143.84793709675213)" stroke-width="5" stroke="#000000"><path d="M 58.695178092152055 -5.989663490593891 L 95.96898050729243 -9.793341079425122 A 40 40 0 0 1 100.02976931447472 -10 L 178.89560407165408 -10 L 257.76143882883343 -10 A 40 40 0 0 1 261.8222276360158 -9.79334107942512 L 274.36232906365365 -8.51366206436971 L 274.36232906365365 -8.51366206436971"/><polygon points="-24.8621506177483,0 -27.62461179749811,9.20820393249937 0,0 -27.62461179749811,-9.20820393249937" fill="#000000" transform="translate(357.79120814330815 0) rotate(5.826689442008371) translate(-59 0)" stroke="none"/></g><g transform="translate(99.85941048599938 -94.22514639017821) rotate(323.8479370967521) translate(0 -13)"><g transform="translate(0 0)"><g transform="translate(-48.86328125 0)" fill="#ffffff" stroke="#000000" stroke-width="0"><rect x="0" y="0" width="97.7265625" height="26" rx="5" ry="5" stroke="none"/><text xml:space="preserve" x="5" y="17.5" stroke="none" text-anchor="left" font-family="sans-serif" font-size="16" font-weight="normal" fill="#000000">SUPPORTS</text></g></g></g></g><g class="relationship"><g transform="translate(-50.489893375309094 3.2362510171129486) rotate(-36.15206290324786)" stroke-width="5" stroke="#000000"><path d="M 58.695178092152055 -5.989663490593891 L 95.96898050729243 -9.793341079425122 A 40 40 0 0 1 100.02976931447472 -10 L 178.89560407165408 -10 L 257.76143882883343 -10 A 40 40 0 0 1 261.8222276360158 -9.79334107942512 L 274.36232906365365 -8.51366206436971 L 274.36232906365365 -8.51366206436971"/><polygon points="-24.8621506177483,0 -27.62461179749811,9.20820393249937 0,0 -27.62461179749811,-9.20820393249937" fill="#000000" transform="translate(357.79120814330815 0) rotate(5.826689442008371) translate(-59 0)" stroke="none"/></g><g transform="translate(88.06080429734027 -110.3742297079686) rotate(-36.15206290324786) translate(0 -13)"><g transform="translate(0 0)"><g transform="translate(-81.76953125 0)" fill="#ffffff" stroke="#000000" stroke-width="0"><rect x="0" y="0" width="163.5390625" height="26" rx="5" ry="5" stroke="none"/><text xml:space="preserve" x="5" y="17.5" stroke="none" text-anchor="left" font-family="sans-serif" font-size="16" font-weight="normal" fill="#000000">IS_SUPPORTED_BY</text></g></g></g></g><g class="relationship"><g transform="translate(238.41010815864874 -207.83562711525977) rotate(-18.70656146144443)" stroke-width="5" stroke="#000000"><path d="M 58.695178092152055 -5.989663490593891 L 95.96898050729243 -9.793341079425122 A 40 40 0 0 1 100.02976931447472 -10 L 220.5906530056536 -10 L 341.15153669683247 -10 A 40 40 0 0 1 345.2123255040148 -9.79334107942512 L 357.7524269316527 -8.51366206436971 L 357.7524269316527 -8.51366206436971"/><polygon points="-24.8621506177483,0 -27.62461179749811,9.20820393249937 0,0 -27.62461179749811,-9.20820393249937" fill="#000000" transform="translate(441.1813060113072 0) rotate(5.826689442008371) translate(-59 0)" stroke="none"/></g><g transform="translate(444.14052659316576 -288.0555194376707) rotate(-18.70656146144443) translate(0 -13)"><g transform="translate(0 0)"><g transform="translate(-46.78515625 0)" fill="#ffffff" stroke="#000000" stroke-width="0"><rect x="0" y="0" width="93.5703125" height="26" rx="5" ry="5" stroke="none"/><text xml:space="preserve" x="5" y="17.5" stroke="none" text-anchor="left" font-family="sans-serif" font-size="16" font-weight="normal" fill="#000000">REQUIRES</text></g></g></g></g><g class="relationship"><g transform="translate(656.2853742708274 -349.3319406556433) rotate(161.2934385385556)" stroke-width="5" stroke="#000000"><path d="M 58.695178092152055 -5.989663490593891 L 95.96898050729243 -9.793341079425122 A 40 40 0 0 1 100.02976931447472 -10 L 220.5906530056536 -10 L 341.15153669683247 -10 A 40 40 0 0 1 345.2123255040148 -9.79334107942512 L 357.7524269316527 -8.51366206436971 L 357.7524269316527 -8.51366206436971"/><polygon points="-24.8621506177483,0 -27.62461179749811,9.20820393249937 0,0 -27.62461179749811,-9.20820393249937" fill="#000000" transform="translate(441.1813060113072 0) rotate(5.826689442008371) translate(-59 0)" stroke="none"/></g><g transform="translate(450.5549558363104 -269.1120483332324) rotate(341.29343853855556) translate(0 -13)"><g transform="translate(0 0)"><g transform="translate(-74.35546875 0)" fill="#ffffff" stroke="#000000" stroke-width="0"><rect x="0" y="0" width="148.7109375" height="26" rx="5" ry="5" stroke="none"/><text xml:space="preserve" x="5" y="17.5" stroke="none" text-anchor="left" font-family="sans-serif" font-size="16" font-weight="normal" fill="#000000">IS_REQUIRED_BY</text></g></g></g></g><g class="relationship"><g transform="translate(137.9174638408013 -559.8245876809591) rotate(74.06598648452022)" stroke-width="5" stroke="#000000"><path d="M 58.695178092152055 -5.989663490593891 L 95.96898050729243 -9.793341079425122 A 40 40 0 0 1 100.02976931447472 -10 L 183.02663735240483 -10 L 266.02350539033495 -10 A 40 40 0 0 1 270.0842941975173 -9.79334107942512 L 282.62439562515516 -8.51366206436971 L 282.62439562515516 -8.51366206436971"/><polygon points="-24.8621506177483,0 -27.62461179749811,9.20820393249937 0,0 -27.62461179749811,-9.20820393249937" fill="#000000" transform="translate(366.05327470480967 0) rotate(5.826689442008371) translate(-59 0)" stroke="none"/></g><g transform="translate(197.7795710476678 -386.5754084584233) rotate(74.06598648452022) translate(0 -13)"><g transform="translate(0 0)"><g transform="translate(-45.7421875 0)" fill="#ffffff" stroke="#000000" stroke-width="0"><rect x="0" y="0" width="91.484375" height="26" rx="5" ry="5" stroke="none"/><text xml:space="preserve" x="5" y="17.5" stroke="none" text-anchor="left" font-family="sans-serif" font-size="16" font-weight="normal" fill="#000000">CONTAINS</text></g></g></g></g><g class="relationship"><g transform="translate(238.41010815864874 -207.83562711525977) rotate(-105.93401351547979)" stroke-width="5" stroke="#000000"><path d="M 58.695178092152055 -5.989663490593891 L 95.96898050729243 -9.793341079425122 A 40 40 0 0 1 100.02976931447472 -10 L 183.02663735240483 -10 L 266.02350539033495 -10 A 40 40 0 0 1 270.0842941975173 -9.79334107942512 L 282.62439562515516 -8.51366206436971 L 282.62439562515516 -8.51366206436971"/><polygon points="-24.8621506177483,0 -27.62461179749811,9.20820393249937 0,0 -27.62461179749811,-9.20820393249937" fill="#000000" transform="translate(366.05327470480967 0) rotate(5.826689442008371) translate(-59 0)" stroke="none"/></g><g transform="translate(178.54800095178223 -381.08480633779556) rotate(74.06598648452021) translate(0 -13)"><g transform="translate(0 0)"><g transform="translate(-59.09375 0)" fill="#ffffff" stroke="#000000" stroke-width="0"><rect x="0" y="0" width="118.1875" height="26" rx="5" ry="5" stroke="none"/><text xml:space="preserve" x="5" y="17.5" stroke="none" text-anchor="left" font-family="sans-serif" font-size="16" font-weight="normal" fill="#000000">BELONGS_TO</text></g></g></g></g><g class="relationship"><g transform="translate(137.9174638408013 -559.8245876809591) rotate(-112.379378663978)" stroke-width="5" stroke="#000000"><path d="M 58.695178092152055 -5.989663490593892 L 95.96898050729241 -9.793341079425122 A 40 40 0 0 1 100.0297693144747 -10 L 118 -10 L 226 -10 A 10 10 0 0 1 236 -1.7763568394002505e-15 L 236 0 L 236 1.7763568394002505e-15 A 10 10 0 0 1 226 10 L 118 10 L 100.0297693144747 10 A 40 40 0 0 0 95.96898050729241 9.793341079425122 L 83.42887907965451 8.513662064369711 L 83.42887907965451 8.513662064369711"/><polygon points="-24.8621506177483,0 -27.62461179749811,9.20820393249937 0,0 -27.62461179749811,-9.20820393249937" fill="#000000" transform="rotate(185.8266894420084) translate(-59 0)" stroke="none"/></g><g transform="translate(51.87076666578551 -768.8029738965463) rotate(-22.379378663978006) translate(0 -13)"><g transform="translate(0 0)"><g transform="translate(-59.68359375 0)" fill="#ffffff" stroke="#000000" stroke-width="0"><rect x="0" y="0" width="119.3671875" height="26" rx="5" ry="5" stroke="none"/><text xml:space="preserve" x="5" y="17.5" stroke="none" text-anchor="left" font-family="sans-serif" font-size="16" font-weight="normal" fill="#000000">SUPERSEDES</text></g></g></g></g><g class="relationship"><g transform="translate(137.9174638408013 -559.8245876809591) rotate(-19.156696089728886)" stroke-width="5" stroke="#000000"><path d="M 58.695178092152055 -5.989663490593892 L 95.96898050729241 -9.793341079425122 A 40 40 0 0 1 100.0297693144747 -10 L 118 -10 L 226 -10 A 10 10 0 0 1 236 -1.7763568394002505e-15 L 236 0 L 236 1.7763568394002505e-15 A 10 10 0 0 1 226 10 L 118 10 L 100.0297693144747 10 A 40 40 0 0 0 95.96898050729241 9.793341079425122 L 83.42887907965451 8.513662064369711 L 83.42887907965451 8.513662064369711"/><polygon points="-24.8621506177483,0 -27.62461179749811,9.20820393249937 0,0 -27.62461179749811,-9.20820393249937" fill="#000000" transform="rotate(185.8266894420084) translate(-59 0)" stroke="none"/></g><g transform="translate(351.402636214718 -633.9871198416066) rotate(70.84330391027112) translate(0 -13)"><g transform="translate(0 0)"><g transform="translate(-87.25390625 0)" fill="#ffffff" stroke="#000000" stroke-width="0"><rect x="0" y="0" width="174.5078125" height="26" rx="5" ry="5" stroke="none"/><text xml:space="preserve" x="5" y="17.5" stroke="none" text-anchor="left" font-family="sans-serif" font-size="16" font-weight="normal" fill="#000000">IS_SUPERSEDED_BY</text></g></g></g></g><g class="relationship"><g transform="translate(137.9174638408013 -559.8245876809591) rotate(154.39793876177288)" stroke-width="5" stroke="#000000"><path d="M 58.695178092152055 -5.989663490593891 L 95.96898050729243 -9.793341079425122 A 40 40 0 0 1 100.02976931447472 -10 L 213.2863421755406 -10 L 326.5429150366065 -10 A 40 40 0 0 1 330.6037038437888 -9.79334107942512 L 343.1438052714267 -8.51366206436971 L 343.1438052714267 -8.51366206436971"/><polygon points="-24.8621506177483,0 -27.62461179749811,9.20820393249937 0,0 -27.62461179749811,-9.20820393249937" fill="#000000" transform="translate(426.5726843510812 0) rotate(5.826689442008371) translate(-59 0)" stroke="none"/></g><g transform="translate(-50.10659950364035 -458.6415092435683) rotate(334.3979387617728) translate(0 -13)"><g transform="translate(0 0)"><g transform="translate(-104.42578125 0)" fill="#ffffff" stroke="#000000" stroke-width="0"><rect x="0" y="0" width="208.8515625" height="26" rx="5" ry="5" stroke="none"/><text xml:space="preserve" x="5" y="17.5" stroke="none" text-anchor="left" font-family="sans-serif" font-size="16" font-weight="normal" fill="#000000">STRATEGIC_OBJECTIVES</text></g></g></g></g><g class="relationship"><g transform="translate(-246.7730266941337 -375.4947704335093) rotate(-25.602061238227133)" stroke-width="5" stroke="#000000"><path d="M 58.695178092152055 -5.989663490593891 L 95.96898050729243 -9.793341079425122 A 40 40 0 0 1 100.02976931447472 -10 L 213.2863421755406 -10 L 326.5429150366065 -10 A 40 40 0 0 1 330.6037038437888 -9.79334107942512 L 343.1438052714267 -8.51366206436971 L 343.1438052714267 -8.51366206436971"/><polygon points="-24.8621506177483,0 -27.62461179749811,9.20820393249937 0,0 -27.62461179749811,-9.20820393249937" fill="#000000" transform="translate(426.5726843510812 0) rotate(5.826689442008371) translate(-59 0)" stroke="none"/></g><g transform="translate(-58.74896334969205 -476.6778488709001) rotate(-25.602061238227133) translate(0 -13)"><g transform="translate(0 0)"><g transform="translate(-157.48046875 0)" fill="#ffffff" stroke="#000000" stroke-width="0"><rect x="0" y="0" width="314.9609375" height="26" rx="5" ry="5" stroke="none"/><text xml:space="preserve" x="5" y="17.5" stroke="none" text-anchor="left" font-family="sans-serif" font-size="16" font-weight="normal" fill="#000000">OBJECTIVE_FOR_BUSINESS_DOMAINS</text></g></g></g></g><g class="relationship"><g transform="translate(586.8693974331441 -126.65267112718524) rotate(-166.88534828871698)" stroke-width="5" stroke="#000000"><path d="M 58.695178092152055 -5.989663490593891 L 95.96898050729243 -9.793341079425122 A 40 40 0 0 1 100.02976931447472 -10 L 178.89560407165405 -10 L 257.7614388288334 -10 A 40 40 0 0 1 261.8222276360157 -9.79334107942512 L 274.3623290636536 -8.51366206436971 L 274.3623290636536 -8.51366206436971"/><polygon points="-24.8621506177483,0 -27.62461179749811,9.20820393249937 0,0 -27.62461179749811,-9.20820393249937" fill="#000000" transform="translate(357.7912081433081 0) rotate(5.826689442008371) translate(-59 0)" stroke="none"/></g><g transform="translate(410.37074913844606 -157.5049693609718) rotate(13.114651711283008) translate(0 -13)"><g transform="translate(0 0)"><g transform="translate(-48.86328125 0)" fill="#ffffff" stroke="#000000" stroke-width="0"><rect x="0" y="0" width="97.7265625" height="26" rx="5" ry="5" stroke="none"/><text xml:space="preserve" x="5" y="17.5" stroke="none" text-anchor="left" font-family="sans-serif" font-size="16" font-weight="normal" fill="#000000">SUPPORTS</text></g></g></g></g><g class="relationship"><g transform="translate(238.41010815864874 -207.83562711525977) rotate(13.114651711283015)" stroke-width="5" stroke="#000000"><path d="M 58.695178092152055 -5.989663490593891 L 95.96898050729243 -9.793341079425122 A 40 40 0 0 1 100.02976931447472 -10 L 178.89560407165405 -10 L 257.7614388288334 -10 A 40 40 0 0 1 261.8222276360157 -9.79334107942512 L 274.3623290636536 -8.51366206436971 L 274.3623290636536 -8.51366206436971"/><polygon points="-24.8621506177483,0 -27.62461179749811,9.20820393249937 0,0 -27.62461179749811,-9.20820393249937" fill="#000000" transform="translate(357.7912081433081 0) rotate(5.826689442008371) translate(-59 0)" stroke="none"/></g><g transform="translate(414.9087564533467 -176.9833288814732) rotate(13.114651711283015) translate(0 -13)"><g transform="translate(0 0)"><g transform="translate(-81.76953125 0)" fill="#ffffff" stroke="#000000" stroke-width="0"><rect x="0" y="0" width="163.5390625" height="26" rx="5" ry="5" stroke="none"/><text xml:space="preserve" x="5" y="17.5" stroke="none" text-anchor="left" font-family="sans-serif" font-size="16" font-weight="normal" fill="#000000">IS_SUPPORTED_BY</text></g></g></g></g><g class="relationship"><g transform="translate(444.5771413080128 -490.01626074063125) rotate(126.15264021453116)" stroke-width="5" stroke="#000000"><path d="M 59 0 L 265.6099592148206 0"/><polygon points="-24.8621506177483,0 -27.62461179749811,9.20820393249937 0,0 -27.62461179749811,-9.20820393249937" fill="#000000" transform="translate(290.4721098325689 0) rotate(0)" stroke="none"/></g><g transform="translate(348.82719397442065 -358.96339358017497) rotate(306.1526402145312) translate(0 -13)"><g transform="translate(0 0)"><g transform="translate(-81.76953125 0)" fill="#ffffff" stroke="#000000" stroke-width="0"><rect x="0" y="0" width="163.5390625" height="26" rx="5" ry="5" stroke="none"/><text xml:space="preserve" x="5" y="17.5" stroke="none" text-anchor="left" font-family="sans-serif" font-size="16" font-weight="normal" fill="#000000">IS_SUPPORTED_BY</text></g></g></g></g><g class="node"><g fill="#ffffff" stroke="#000000" stroke-width="4"><circle cx="-246.7730266941337" cy="-375.4947704335093" r="52"/></g><g transform="translate(-246.7730266941337 -375.4947704335093)"><g transform="scale(0.19718207178382396) translate(0 -59)"><g transform="translate(0 0)"><g fill="#000000" font-family="sans-serif" font-size="50" font-weight="normal" text-anchor="middle"><text xml:space="preserve" x="0" y="43" stroke="none">Business_Objective</text></g></g><g transform="translate(0 64)"><g transform="translate(-220.45703125 0)"><g fill="#ffffff" stroke="#000000" stroke-width="4"><rect x="0" y="0" width="440.9140625" height="54" rx="27" ry="27"/><text xml:space="preserve" x="27" y="37.5" stroke="none" font-family="sans-serif" font-size="40" font-weight="normal" fill="#000000">Business_Conceptual</text></g></g></g></g></g></g><g class="node"><g fill="#ffffff" stroke="#000000" stroke-width="4"><circle cx="-50.489893375309094" cy="3.2362510171129486" r="52"/></g><g transform="translate(-50.489893375309094 3.2362510171129486)"><g transform="scale(0.19718207178382396) translate(0 -59)"><g transform="translate(0 0)"><g fill="#000000" font-family="sans-serif" font-size="50" font-weight="normal" text-anchor="middle"><text xml:space="preserve" x="0" y="43" stroke="none">Business_Principle</text></g></g><g transform="translate(0 64)"><g transform="translate(-220.45703125 0)"><g fill="#ffffff" stroke="#000000" stroke-width="4"><rect x="0" y="0" width="440.9140625" height="54" rx="27" ry="27"/><text xml:space="preserve" x="27" y="37.5" stroke="none" font-family="sans-serif" font-size="40" font-weight="normal" fill="#000000">Business_Conceptual</text></g></g></g></g></g></g><g class="node"><g fill="#ffffff" stroke="#000000" stroke-width="4"><circle cx="-351.96534165515396" cy="-71.51336991776162" r="52"/></g><g transform="translate(-351.96534165515396 -71.51336991776162)"><g transform="scale(0.19718207178382396) translate(0 -59)"><g transform="translate(0 0)"><g fill="#000000" font-family="sans-serif" font-size="50" font-weight="normal" text-anchor="middle"><text xml:space="preserve" x="0" y="43" stroke="none">Business_Driver</text></g></g><g transform="translate(0 64)"><g transform="translate(-220.45703125 0)"><g fill="#ffffff" stroke="#000000" stroke-width="4"><rect x="0" y="0" width="440.9140625" height="54" rx="27" ry="27"/><text xml:space="preserve" x="27" y="37.5" stroke="none" font-family="sans-serif" font-size="40" font-weight="normal" fill="#000000">Business_Conceptual</text></g></g></g></g></g></g><g class="node"><g fill="#ffffff" stroke="#000000" stroke-width="4"><circle cx="-634.1732669884215" cy="-375.4947704335093" r="52"/></g><g transform="translate(-634.1732669884215 -375.4947704335093)"><g transform="scale(0.18414273774333992) translate(0 -59)"><g transform="translate(0 0)"><g fill="#000000" font-family="sans-serif" font-size="50" font-weight="normal" text-anchor="middle"><text xml:space="preserve" x="0" y="43" stroke="none">Application_Driver</text></g></g><g transform="translate(0 64)"><g transform="translate(-237.146484375 0)"><g fill="#ffffff" stroke="#000000" stroke-width="4"><rect x="0" y="0" width="474.29296875" height="54" rx="27" ry="27"/><text xml:space="preserve" x="27" y="37.5" stroke="none" font-family="sans-serif" font-size="40" font-weight="normal" fill="#000000">Application_Conceptual</text></g></g></g></g></g></g><g class="node"><g fill="#ffffff" stroke="#000000" stroke-width="4"><circle cx="238.41010815864874" cy="-207.83562711525977" r="52"/></g><g transform="translate(238.41010815864874 -207.83562711525977)"><g transform="scale(0.1933612259558292) translate(0 -59)"><g transform="translate(0 0)"><g fill="#000000" font-family="sans-serif" font-size="50" font-weight="normal" text-anchor="middle"><text xml:space="preserve" x="0" y="43" stroke="none">Business_Capability</text></g></g><g transform="translate(0 64)"><g transform="translate(-220.45703125 0)"><g fill="#ffffff" stroke="#000000" stroke-width="4"><rect x="0" y="0" width="440.9140625" height="54" rx="27" ry="27"/><text xml:space="preserve" x="27" y="37.5" stroke="none" font-family="sans-serif" font-size="40" font-weight="normal" fill="#000000">Business_Conceptual</text></g></g></g></g></g></g><g class="node"><g fill="#ffffff" stroke="#000000" stroke-width="4"><circle cx="656.2853742708274" cy="-349.3319406556433" r="52"/></g><g transform="translate(656.2853742708274 -349.3319406556433)"><g transform="scale(0.19718207178382396) translate(0 -59)"><g transform="translate(0 0)"><g fill="#000000" font-family="sans-serif" font-size="50" font-weight="normal" text-anchor="middle"><text xml:space="preserve" x="0" y="43" stroke="none">Skill_Type</text></g></g><g transform="translate(0 64)"><g transform="translate(-220.45703125 0)"><g fill="#ffffff" stroke="#000000" stroke-width="4"><rect x="0" y="0" width="440.9140625" height="54" rx="27" ry="27"/><text xml:space="preserve" x="27" y="37.5" stroke="none" font-family="sans-serif" font-size="40" font-weight="normal" fill="#000000">Business_Conceptual</text></g></g></g></g></g></g><g class="node"><g fill="#ffffff" stroke="#000000" stroke-width="4"><circle cx="137.9174638408013" cy="-559.8245876809591" r="52"/></g><g transform="translate(137.9174638408013 -559.8245876809591)"><g transform="scale(0.18927906884190993) translate(0 -89)"><g transform="translate(0 0)"><g fill="#000000" font-family="sans-serif" font-size="50" font-weight="normal" text-anchor="middle"><text xml:space="preserve" x="0" y="43" stroke="none">Business_Domain</text><text xml:space="preserve" x="0" y="103" stroke="none" text-anchor="middle"></text></g></g><g transform="translate(0 124)"><g transform="translate(-220.45703125 0)"><g fill="#ffffff" stroke="#000000" stroke-width="4"><rect x="0" y="0" width="440.9140625" height="54" rx="27" ry="27"/><text xml:space="preserve" x="27" y="37.5" stroke="none" font-family="sans-serif" font-size="40" font-weight="normal" fill="#000000">Business_Conceptual</text></g></g></g></g></g></g><g class="node"><g fill="#ffffff" stroke="#000000" stroke-width="4"><circle cx="586.8693974331441" cy="-126.65267112718524" r="52"/></g><g transform="translate(586.8693974331441 -126.65267112718524)"><g transform="scale(0.17789330594377595) translate(0 -59)"><g transform="translate(0 0)"><g fill="#000000" font-family="sans-serif" font-size="50" font-weight="normal" text-anchor="middle"><text xml:space="preserve" x="0" y="43" stroke="none">Application_Capability</text></g></g><g transform="translate(0 64)"><g transform="translate(-237.146484375 0)"><g fill="#ffffff" stroke="#000000" stroke-width="4"><rect x="0" y="0" width="474.29296875" height="54" rx="27" ry="27"/><text xml:space="preserve" x="27" y="37.5" stroke="none" font-family="sans-serif" font-size="40" font-weight="normal" fill="#000000">Application_Conceptual</text></g></g></g></g></g></g><g class="node"><g fill="#ffffff" stroke="#000000" stroke-width="4"><circle cx="444.5771413080128" cy="-490.01626074063125" r="52"/></g><g transform="translate(444.5771413080128 -490.01626074063125)"><g transform="scale(0.19718207178382396) translate(0 -59)"><g transform="translate(0 0)"><g fill="#000000" font-family="sans-serif" font-size="50" font-weight="normal" text-anchor="middle"><text xml:space="preserve" x="0" y="43" stroke="none">Product_Concept</text></g></g><g transform="translate(0 64)"><g transform="translate(-220.45703125 0)"><g fill="#ffffff" stroke="#000000" stroke-width="4"><rect x="0" y="0" width="440.9140625" height="54" rx="27" ry="27"/><text xml:space="preserve" x="27" y="37.5" stroke="none" font-family="sans-serif" font-size="40" font-weight="normal" fill="#000000">Business_Conceptual</text></g></g></g></g></g></g></g></svg>